<?xml version="1.0" encoding="UTF-8" standalone="no"?>
<!-- Created with Inkscape (http://www.inkscape.org/) -->

<svg
   version="1.1"
   id="svg2"
   xml:space="preserve"
   width="1837.797"
   height="523.33282"
   viewBox="0 0 1837.7971 523.33284"
   sodipodi:docname="trident_neptune_logo_mark_strokes_aspath-light.svg"
   inkscape:version="1.2.2 (732a01da63, 2022-12-09)"
   xmlns:inkscape="http://www.inkscape.org/namespaces/inkscape"
   xmlns:sodipodi="http://sodipodi.sourceforge.net/DTD/sodipodi-0.dtd"
   xmlns="http://www.w3.org/2000/svg"
   xmlns:svg="http://www.w3.org/2000/svg"
   xmlns:rdf="http://www.w3.org/1999/02/22-rdf-syntax-ns#"
   xmlns:cc="http://creativecommons.org/ns#"
   xmlns:dc="http://purl.org/dc/elements/1.1/"><metadata
     id="metadata8"><rdf:RDF><cc:Work
         rdf:about=""><dc:format>image/svg+xml</dc:format><dc:type
           rdf:resource="http://purl.org/dc/dcmitype/StillImage" /><dc:title /></cc:Work></rdf:RDF></metadata><defs
     id="defs6">


</defs><sodipodi:namedview
     pagecolor="#ffffff"
     bordercolor="#666666"
     borderopacity="1"
     objecttolerance="10"
     gridtolerance="10"
     guidetolerance="10"
     inkscape:pageopacity="0"
     inkscape:pageshadow="2"
     inkscape:window-width="1562"
     inkscape:window-height="772"
     id="namedview4"
     showgrid="false"
     inkscape:zoom="0.58439534"
     inkscape:cx="652.8115"
     inkscape:cy="262.66465"
     inkscape:window-x="178"
     inkscape:window-y="72"
     inkscape:window-maximized="0"
     inkscape:current-layer="g10"
     inkscape:showpageshadow="2"
     inkscape:pagecheckerboard="0"
     inkscape:deskcolor="#d1d1d1" /><g
     id="g10"
     inkscape:groupmode="layer"
     inkscape:label="ink_ext_XXXXXX"
     transform="matrix(1.3333333,0,0,-1.3333333,-359.1315,395.7001)"
     style="display:inline"><rect
       style="display:inline;fill:none;fill-opacity:1;stroke:none;stroke-width:0;stroke-miterlimit:10;stroke-dasharray:none;stroke-opacity:1"
       id="rect828"
       width="1378.3478"
       height="392.49963"
       x="269.34863"
       y="-296.77509"
       transform="scale(1,-1)" /><g
       id="g882"><g
         id="g864"><path
           inkscape:connector-curvature="0"
           id="path839"
           style="font-style:normal;font-variant:normal;font-weight:bold;font-stretch:normal;font-size:260px;line-height:1.25;font-family:Consolas;-inkscape-font-specification:'Consolas, Bold';font-variant-ligatures:normal;font-variant-caps:normal;font-variant-numeric:normal;font-feature-settings:normal;text-align:start;letter-spacing:0px;word-spacing:0px;writing-mode:lr-tb;text-anchor:start;fill:#cccccc;fill-opacity:1;stroke:none;stroke-width:5.82739162"
           d="M 803.70405,5.7667462 V 93.439901 q 0,22.116939 -15.09037,22.116939 -7.54519,0 -14.48188,-6.62184 -6.81501,-6.62183 -14.4819,-18.011399 V 5.7667462 H 729.95596 V 140.32252 h 25.67796 l 0.73018,-19.86551 q 3.7726,5.16503 7.78858,9.40301 4.13768,4.23798 8.88385,7.15159 4.74616,3.04604 10.2225,4.63529 5.47634,1.58923 12.29135,1.58923 9.49233,0 16.55073,-3.44335 7.05839,-3.31093 11.80456,-9.53545 4.74617,-6.0921 7.0584,-14.83292 2.43393,-8.6084 2.43393,-19.335774 V 5.7667462 Z" /><path
           inkscape:connector-curvature="0"
           id="path841"
           style="font-style:normal;font-variant:normal;font-weight:bold;font-stretch:normal;font-size:260px;line-height:1.25;font-family:Consolas;-inkscape-font-specification:'Consolas, Bold';font-variant-ligatures:normal;font-variant-caps:normal;font-variant-numeric:normal;font-feature-settings:normal;text-align:start;letter-spacing:0px;word-spacing:0px;writing-mode:lr-tb;text-anchor:start;fill:#cccccc;fill-opacity:1;stroke:none;stroke-width:5.82739162"
           d="m 974.93105,83.374704 q 0,-3.310919 -0.24339,-8.608391 -0.12174,-5.297471 -0.48678,-9.932759 H 892.9076 q 0,-8.873265 2.43393,-15.627541 2.55562,-6.754276 7.05839,-11.389564 4.62447,-4.502851 10.95269,-6.886713 6.44992,-2.383862 14.2385,-2.383862 9.00554,0 19.22804,1.456805 10.34421,1.589241 21.41861,5.032598 V 9.3425395 Q 963.49157,7.8857348 957.89354,6.6938037 952.29549,5.5018726 946.45406,4.5748151 940.61263,3.6477576 934.6495,3.2504472 928.68638,2.7207 923.08833,2.7207 q -14.11679,0 -25.31288,4.370414 -11.19608,4.370414 -18.98465,12.846368 -7.78858,8.608392 -11.92626,21.189887 -4.13768,12.581495 -4.13768,29.136094 0,16.422161 4.13768,29.798277 4.13768,13.50855 11.68287,23.044 7.54518,9.66789 18.25448,14.83292 10.83098,5.29747 24.09591,5.29747 13.14322,0 23.24403,-4.50284 10.10081,-4.37043 16.91577,-12.31662 6.81503,-7.94621 10.34429,-18.93847 3.52916,-10.992253 3.52916,-24.103496 z m -30.18074,4.635289 q 0.1217,7.946207 -1.82545,13.773427 -1.94714,5.95966 -5.35465,9.80033 -3.2858,3.84066 -7.78857,5.69477 -4.38107,1.85411 -9.49233,1.85411 -11.19608,0 -18.37617,-8.21107 -7.1801,-8.07865 -8.51876,-22.911567 z" /><path
           inkscape:connector-curvature="0"
           id="path843"
           style="font-style:normal;font-variant:normal;font-weight:bold;font-stretch:normal;font-size:260px;line-height:1.25;font-family:Consolas;-inkscape-font-specification:'Consolas, Bold';font-variant-ligatures:normal;font-variant-caps:normal;font-variant-numeric:normal;font-feature-settings:normal;text-align:start;letter-spacing:0px;word-spacing:0px;writing-mode:lr-tb;text-anchor:start;fill:#cccccc;fill-opacity:1;stroke:none;stroke-width:5.82739162"
           d="m 1084.0929,88.009993 q 0.2434,7.548897 -0.7303,12.846367 -0.8518,5.29747 -2.9206,8.74083 -1.9472,3.44336 -4.868,5.0326 -2.9206,1.58924 -6.6933,1.58924 -6.5716,0 -13.6299,-5.95966 -6.9368,-5.82721 -15.3338,-19.335769 V 5.7667462 h -30.4241 V 140.32252 h 26.8949 l 1.0953,-19.60064 q 3.0423,5.16503 6.815,9.27057 3.8943,4.10555 8.5187,7.01916 4.7462,3.04604 10.4659,4.63529 5.7198,1.58923 12.5347,1.58923 9.3707,0 16.5508,-3.57579 7.3018,-3.44335 12.1697,-10.33007 4.9895,-6.88671 7.3018,-17.34921 2.4338,-10.33008 2.0688,-23.971067 z" /><path
           inkscape:connector-curvature="0"
           id="path845"
           style="font-style:normal;font-variant:normal;font-weight:bold;font-stretch:normal;font-size:260px;line-height:1.25;font-family:Consolas;-inkscape-font-specification:'Consolas, Bold';font-variant-ligatures:normal;font-variant-caps:normal;font-variant-numeric:normal;font-feature-settings:normal;text-align:start;letter-spacing:0px;word-spacing:0px;writing-mode:lr-tb;text-anchor:start;fill:#cccccc;fill-opacity:1;stroke:none;stroke-width:5.82739162"
           d="m 1249.4784,83.374704 q 0,-3.310919 -0.2434,-8.608391 -0.1217,-5.297471 -0.4868,-9.932759 h -81.2933 q 0,-8.873265 2.434,-15.627541 2.5556,-6.754276 7.0584,-11.389564 4.6244,-4.502851 10.9527,-6.886713 6.4499,-2.383862 14.2385,-2.383862 9.0055,0 19.228,1.456805 10.3442,1.589241 21.4186,5.032598 V 9.3425395 Q 1238.039,7.8857348 1232.4409,6.6938037 1226.8429,5.5018726 1221.0014,4.5748151 1215.16,3.6477576 1209.1969,3.2504472 1203.2337,2.7207 1197.6357,2.7207 q -14.1168,0 -25.3129,4.370414 -11.1961,4.370414 -18.9846,12.846368 -7.7886,8.608392 -11.9263,21.189887 -4.1377,12.581495 -4.1377,29.136094 0,16.422161 4.1377,29.798277 4.1377,13.50855 11.6829,23.044 7.5452,9.66789 18.2544,14.83292 10.831,5.29747 24.096,5.29747 13.1432,0 23.244,-4.50284 10.1008,-4.37043 16.9158,-12.31662 6.815,-7.94621 10.3442,-18.93847 3.5292,-10.992253 3.5292,-24.103496 z m -30.1807,4.635289 q 0.1216,7.946207 -1.8255,13.773427 -1.9472,5.95966 -5.3547,9.80033 -3.2858,3.84066 -7.7886,5.69477 -4.381,1.85411 -9.4922,1.85411 -11.1961,0 -18.3762,-8.21107 -7.1802,-8.07865 -8.5187,-22.911567 z" /><path
           inkscape:connector-curvature="0"
           id="path847"
           style="font-style:normal;font-variant:normal;font-weight:bold;font-stretch:normal;font-size:260px;line-height:1.25;font-family:Consolas;-inkscape-font-specification:'Consolas, Bold';font-variant-ligatures:normal;font-variant-caps:normal;font-variant-numeric:normal;font-feature-settings:normal;text-align:start;letter-spacing:0px;word-spacing:0px;writing-mode:lr-tb;text-anchor:start;fill:#cccccc;fill-opacity:1;stroke:none;stroke-width:5.82739162"
           d="m 1351.8251,177.13995 q 0,-4.37041 -1.4603,-8.21108 -1.4603,-3.84066 -4.1377,-6.75428 -2.5556,-2.78117 -6.0848,-4.50285 -3.5292,-1.58923 -7.6669,-1.58923 -4.1376,0 -7.7885,1.58923 -3.5293,1.72168 -6.2066,4.50285 -2.5556,2.91362 -4.016,6.75428 -1.4603,3.84067 -1.4603,8.21108 0,4.37042 1.4603,8.21109 1.4604,3.84066 4.016,6.75427 2.6773,2.9136 6.2066,4.50285 3.6509,1.72167 7.7885,1.72167 4.1377,0 7.6669,-1.72167 3.5292,-1.58925 6.0848,-4.50285 2.6774,-2.91361 4.1377,-6.75427 1.4603,-3.84067 1.4603,-8.21109 z m -32.858,-61.98042 h -34.9269 v 25.16299 h 65.3511 V 30.929736 h 35.657 V 5.7667462 H 1279.7808 V 30.929736 h 39.1863 z" /><path
           inkscape:connector-curvature="0"
           id="path849"
           style="font-style:normal;font-variant:normal;font-weight:bold;font-stretch:normal;font-size:260px;line-height:1.25;font-family:Consolas;-inkscape-font-specification:'Consolas, Bold';font-variant-ligatures:normal;font-variant-caps:normal;font-variant-numeric:normal;font-feature-settings:normal;text-align:start;letter-spacing:0px;word-spacing:0px;writing-mode:lr-tb;text-anchor:start;fill:#cccccc;fill-opacity:1;stroke:none;stroke-width:5.82739162"
           d="m 1494.0884,5.7667462 -0.7302,19.8655188 q -3.8943,-5.165035 -8.032,-9.403012 -4.1376,-4.237977 -8.8838,-7.2840239 -4.7461,-2.9136094 -10.2225,-4.5028508 Q 1460.8652,2.7207 1454.2937,2.7207 q -10.9527,0 -19.4715,4.7677244 -8.5188,4.7677246 -14.3602,13.5085526 -5.7197,8.873265 -8.7621,21.45476 -3.0425,12.581494 -3.0425,28.076599 0,18.541151 4.7462,32.049704 4.8678,13.64099 13.3867,22.51425 8.5187,9.00571 20.2016,13.24369 11.6828,4.37041 25.4345,4.37041 4.6245,0 9.2489,-0.66219 4.7462,-0.66218 8.3971,-1.72168 v 52.5774 h 29.6939 V 5.7667462 Z M 1439.8117,71.98514 q 0,-11.124689 1.3387,-19.070897 1.4604,-7.81377 4.1377,-12.846369 2.7991,-5.032597 6.815,-7.41646 4.016,-2.251425 9.1272,-2.251425 7.5452,0 14.3603,6.621839 6.8149,6.62184 14.4818,18.143841 V 113.9676 q -3.5292,1.45681 -8.7621,2.38387 -5.1113,0.92705 -10.3443,0.92705 -7.18,0 -12.8998,-3.17848 -5.7197,-3.17848 -9.8574,-9.0057 -4.0159,-5.827221 -6.2065,-14.303175 -2.1906,-8.343518 -2.1906,-18.806025 z" /></g><g
         transform="matrix(1.7175535,0,0,1.7175535,-628.45773,-443.29207)"
         id="g5996"><path
           inkscape:connector-curvature="0"
           id="path16"
           style="fill:#81bea1;fill-opacity:1;fill-rule:nonzero;stroke:#81bea1;stroke-width:0.09999999;stroke-opacity:1"
           d="m 686.12564,298.50163 c 0,-9.529 -7.7242,-17.25289 -17.2523,-17.25289 -9.5289,0 -17.2527,7.72389 -17.2527,17.25289 0,9.528 7.7238,17.253 17.2527,17.253 9.5281,0 17.2523,-7.725 17.2523,-17.253" /><path
           inkscape:connector-curvature="0"
           id="path18"
           style="fill:none;stroke:#81bea1;stroke-width:10;stroke-linecap:round;stroke-linejoin:miter;stroke-miterlimit:10;stroke-dasharray:none;stroke-opacity:1"
           d="M 668.87334,314.42863 V 237.35854" /><path
           inkscape:connector-curvature="0"
           id="path20"
           style="fill:none;stroke:#81bea1;stroke-width:10;stroke-linecap:round;stroke-linejoin:miter;stroke-miterlimit:10;stroke-dasharray:none;stroke-opacity:1"
           d="m 722.37955,334.49563 -7.5e-4,-10.231 c 0,-7.181 -4.672,-13.527 -11.529,-15.659 l -41.9762,-13.052" /><path
           inkscape:connector-curvature="0"
           id="path22"
           style="fill:none;stroke:#81bea1;stroke-width:10;stroke-linecap:round;stroke-linejoin:miter;stroke-miterlimit:10;stroke-dasharray:none;stroke-opacity:1"
           d="m 615.36744,350.63763 v -26.373 c 0,-7.181 4.6723,-13.527 11.5297,-15.659 l 41.9762,-13.052" /><path
           inkscape:connector-curvature="0"
           id="path24"
           style="fill:none;stroke:#81bea1;stroke-width:10;stroke-linecap:round;stroke-linejoin:miter;stroke-miterlimit:10;stroke-dasharray:none;stroke-opacity:1"
           d="m 668.87334,379.68163 v -65.488" /><path
           inkscape:connector-curvature="0"
           id="path26"
           style="fill:#81bea1;fill-opacity:1;fill-rule:nonzero;stroke:#81bea1;stroke-width:0.09999999;stroke-opacity:1"
           d="m 705.06655,334.44263 v 0 c 5.32699,7.551 9.77499,15.685 13.257,24.245 l 0.10699,0.263 c 1.44101,3.541 6.456,3.541 7.89701,0 l 0.10699,-0.263 c 3.482,-8.56 7.93001,-16.694 13.257,-24.245 v 0 c 2.08901,-2.962 -0.237,-7.014 -3.847,-6.705 v 0 c -8.961,0.767 -17.97,0.767 -26.931,0 v 0 c -3.60999,-0.309 -5.936,3.743 -3.84699,6.705" /><path
           inkscape:connector-curvature="0"
           id="path28"
           style="fill:#81bea1;fill-opacity:1;fill-rule:nonzero;stroke:#81bea1;stroke-width:0.09999999;stroke-opacity:1"
           d="m 598.04561,346.09363 v 0 c 5.32695,7.551 9.77463,15.685 13.25703,24.245 l 0.1066,0.263 c 1.4411,3.542 6.4563,3.542 7.8973,0 l 0.107,-0.263 c 3.4825,-8.56 7.9301,-16.694 13.2567,-24.245 v 0 c 2.089,-2.962 -0.2364,-7.014 -3.8473,-6.705 v 0 c -8.9601,0.768 -17.9695,0.768 -26.93007,0 v 0 c -3.61094,-0.309 -5.93594,3.743 -3.84726,6.705" /><path
           inkscape:connector-curvature="0"
           id="path30"
           style="fill:#81bea1;fill-opacity:1;fill-rule:nonzero;stroke:#81bea1;stroke-width:0.09999999;stroke-opacity:1"
           d="m 651.56084,373.74463 v 0 c 5.3266,7.551 9.7742,15.685 13.2566,24.245 l 0.1071,0.263 c 1.441,3.542 6.4562,3.542 7.8972,0 l 0.10671,-0.263 c 3.4824,-8.56 7.93039,-16.694 13.257,-24.245 v 0 c 2.08869,-2.961 -0.23631,-7.014 -3.84731,-6.704 v 0 c -8.9605,0.766 -17.9699,0.766 -26.93,0 v 0 c -3.611,-0.31 -5.9364,3.743 -3.8473,6.704" /></g></g></g></svg>
